<?xml version="1.0" standalone="no"?>
<!DOCTYPE svg PUBLIC "-//W3C//DTD SVG 20010904//EN"
 "http://www.w3.org/TR/2001/REC-SVG-20010904/DTD/svg10.dtd">
<svg version="1.0" xmlns="http://www.w3.org/2000/svg"
 width="300.000000pt" height="171.000000pt" viewBox="0 0 300.000000 171.000000"
 preserveAspectRatio="xMidYMid meet">
<metadata>
Created by potrace 1.10, written by Peter Selinger 2001-2011
</metadata>
<g transform="translate(0.000000,171.000000) scale(0.050000,-0.050000)"
fill="#0c343d" stroke="none">
<path d="M8 3402 c-17 -18 -7 -160 12 -172 12 -7 20 16 20 59 l0 71 1375 2
c756 1 1416 0 1465 -1 91 -2 205 -1 260 3 17 1 658 1 1425 -1 l1395 -3 0 -50
c0 -27 10 -50 21 -50 12 0 19 32 15 75 l-6 75 -1107 0 c-609 0 -1111 -7 -1116
-15 -5 -9 -20 -9 -33 0 -35 22 -274 18 -274 -5 0 -11 -7 -10 -15 3 -14 22
-3415 30 -3437 9z"/>
<path d="M60 1721 l0 -1601 810 0 810 0 0 690 0 690 -800 0 c-440 0 -800 7
-800 15 0 8 356 15 790 15 l790 0 0 227 0 227 -690 -7 c-380 -4 -690 0 -690 9
0 9 -11 10 -24 1 -43 -26 -179 -27 -171 -1 10 29 233 35 270 8 14 -10 25 -11
25 -1 0 9 289 14 650 11 578 -6 650 -3 650 25 0 28 -88 31 -800 31 -440 0
-800 7 -800 15 0 8 355 13 790 10 l790 -6 0 72 0 71 -697 -6 c-460 -4 -695 1
-690 14 5 13 254 18 707 14 616 -4 700 -1 700 25 0 27 -96 31 -800 31 -440 0
-800 7 -800 15 0 8 356 15 791 15 l792 0 2 295 c1 162 -4 301 -12 308 -7 8
-13 3 -13 -10 0 -17 -184 -23 -718 -23 -556 0 -721 -6 -729 -25 -8 -20 -10
-20 -11 0 -3 39 -82 30 -82 -8 0 -19 -5 -29 -10 -24 -6 6 -5 39 2 74 l13 64
781 -1 781 -2 -1 136 -1 136 -723 0 c-397 0 -722 7 -722 15 0 9 329 13 730 10
477 -3 730 2 730 15 0 13 -287 22 -810 26 l-810 6 0 -1601z m140 1538 c0 -12
-9 -16 -20 -9 -11 7 -20 4 -20 -7 0 -11 -18 -15 -40 -9 -61 16 -48 46 20 46
33 0 60 -10 60 -21z m540 -72 c0 -20 -37 -27 -140 -27 -82 0 -140 8 -140 20 0
12 43 19 100 17 55 -2 105 1 110 6 21 21 70 9 70 -16z m-460 -7 c0 -11 -27
-19 -60 -16 -33 2 -60 12 -60 20 0 9 27 16 60 16 33 0 60 -9 60 -20z m160 0
c0 -11 -31 -20 -70 -20 -38 0 -70 9 -70 20 0 11 32 20 70 20 39 0 70 -9 70
-20z m-140 -79 c0 -23 -117 -21 -132 2 -6 9 22 17 61 17 39 0 71 -8 71 -19z
m960 -66 c0 -8 -13 -16 -30 -17 -16 -2 -41 -5 -55 -7 -33 -5 -58 8 -47 25 11
19 132 18 132 -1z m193 -8 c-20 -20 -173 -23 -173 -4 0 9 42 17 93 17 52 0 88
-6 80 -13z m-773 -162 c0 -10 -36 -19 -80 -22 -44 -2 -80 3 -80 12 0 10 36 19
80 22 44 2 80 -3 80 -12z m-380 -81 c0 -9 -31 -18 -70 -21 -38 -2 -70 5 -70
16 0 12 32 21 70 21 39 0 70 -7 70 -16z m140 -4 c0 -11 -27 -20 -60 -20 -33 0
-60 9 -60 20 0 11 27 20 60 20 33 0 60 -9 60 -20z m300 0 c0 -11 -27 -20 -60
-20 -33 0 -60 9 -60 20 0 11 27 20 60 20 33 0 60 -9 60 -20z m220 4 c0 -9 -45
-19 -100 -21 -59 -3 -100 4 -100 16 0 12 44 21 100 21 55 0 100 -7 100 -16z
m-591 -86 c-18 -29 -189 -22 -189 7 0 18 30 23 100 18 55 -4 95 -15 89 -25z
m211 -2 c0 -10 -34 -17 -75 -14 -86 6 -109 15 -97 35 13 21 172 2 172 -21z
m140 14 c0 -19 -19 -30 -50 -30 -62 0 -66 34 -5 46 25 5 47 10 50 11 3 2 5
-10 5 -27z m465 12 c30 -1 55 -10 55 -20 0 -20 -295 -40 -330 -24 -11 6 -49 8
-85 5 -43 -4 -65 3 -65 20 0 26 88 29 425 19z m325 -142 c0 -79 8 -114 30
-123 64 -27 -137 -42 -421 -32 -299 10 -385 27 -302 58 23 8 43 26 43 38 0 13
-13 18 -29 12 -17 -6 -35 -3 -42 8 -7 12 75 19 211 19 160 0 218 6 208 23 -8
13 -3 19 13 13 15 -5 50 17 78 48 42 47 65 56 131 51 l80 -5 0 -110z m-1070
48 c0 -14 -52 -22 -140 -22 -125 -1 -159 9 -132 36 20 19 272 7 272 -14z
m-140 -90 c0 -23 -114 -24 -128 -1 -6 10 -7 22 -2 27 16 15 130 -7 130 -26z
m236 24 c58 -4 -3 -42 -67 -42 -48 0 -65 8 -58 27 6 14 31 24 55 21 24 -2 56
-5 70 -6z m122 -2 c31 8 69 8 84 -1 32 -20 22 -34 -32 -39 -92 -10 -130 0
-128 35 0 19 5 25 11 12 6 -16 28 -18 65 -7z m-396 -80 c21 0 38 -9 38 -21 0
-31 -126 -12 -136 20 -7 19 1 23 25 14 19 -7 52 -13 73 -13z m118 -5 c0 14 14
25 30 25 17 0 30 -13 30 -30 0 -19 -19 -30 -50 -30 -34 0 -50 11 -50 35 1 30
3 31 20 5 13 -20 19 -22 20 -5z m60 -94 c0 -8 -49 -16 -110 -16 -70 -1 -110 7
-110 22 0 15 37 21 110 16 60 -4 110 -14 110 -22z m225 20 c66 -6 -7 -41 -85
-41 -74 0 -100 8 -100 29 0 22 20 27 85 21 47 -4 92 -8 100 -9z m-505 -166 c0
-15 6 -17 15 -5 24 32 91 37 80 6 -5 -15 -43 -27 -92 -29 -78 -3 -100 9 -70
40 23 22 67 14 67 -12z m355 -90 c6 -17 -43 -24 -174 -23 -125 0 -181 8 -181
24 0 33 344 32 355 -1z m-235 -235 c0 -19 -19 -30 -50 -30 -31 0 -50 11 -50
30 0 19 19 30 50 30 31 0 50 -11 50 -30z m60 -81 c0 -31 -165 -25 -175 6 -6
19 17 24 83 20 51 -3 92 -15 92 -26z m320 1 c0 -21 -21 -30 -70 -30 -43 0 -70
10 -70 25 -1 17 -5 18 -15 4 -21 -31 -125 -27 -125 5 0 19 38 26 140 26 111 0
140 -6 140 -30z m852 15 c27 -18 47 -165 23 -165 -10 0 -12 -9 -5 -20 7 -11 2
-20 -10 -20 -12 0 -17 -9 -10 -20 8 -13 -149 -20 -457 -20 -394 0 -471 5 -480
29 -13 35 18 59 50 39 14 -9 18 -5 9 9 -8 13 -4 23 9 23 18 0 18 7 2 27 -17
20 -12 26 22 25 31 -2 44 9 42 33 -1 19 10 35 25 35 16 0 28 9 28 20 0 23 717
28 752 5z m-1212 -88 c0 -38 -122 -40 -135 -1 -5 14 19 20 64 18 39 -2 71 -10
71 -17z m88 11 c41 -16 21 -48 -29 -48 -22 0 -39 14 -39 30 0 32 18 37 68 18z
m132 -17 c0 -16 -17 -27 -40 -26 -22 2 -40 15 -40 29 0 14 18 26 40 26 22 0
40 -13 40 -29z m-220 -84 c0 -21 -18 -28 -63 -23 -88 8 -94 48 -7 50 49 1 70
-7 70 -27z m40 -74 c0 -19 -28 -27 -90 -27 -86 0 -106 11 -77 41 26 26 167 14
167 -14z m965 -28 c-113 -3 -297 -3 -410 0 -113 4 -21 7 205 7 226 0 318 -3
205 -7z m255 -713 c0 -291 -5 -543 -12 -560 -11 -28 -90 -32 -680 -32 l-668 0
0 549 0 548 55 9 c30 4 336 9 680 11 l625 3 0 -528z"/>
<path d="M1700 3242 c1 -54 5 -64 20 -42 14 21 19 -6 17 -90 -1 -97 -5 -108
-17 -60 -11 44 -16 19 -18 -95 l-2 -155 2110 5 c1161 3 2110 -2 2110 -10 0 -8
-947 -17 -2105 -20 l-2105 -5 -3 -80 c-2 -46 1 -59 7 -30 16 78 159 123 159
50 0 -21 -20 -30 -66 -30 -37 0 -67 -10 -67 -21 0 -12 9 -16 20 -9 11 7 20 2
20 -11 0 -18 8 -18 30 1 25 20 30 19 30 -8 0 -23 -14 -32 -45 -28 -25 3 -45
-3 -45 -14 0 -13 708 -20 2085 -20 1147 0 2085 -7 2085 -15 0 -8 -945 -15
-2100 -15 l-2100 0 0 -1210 0 -1210 2110 0 2110 0 0 1595 0 1595 -2120 2
-2120 2 0 -72z m4216 -187 l-4 -225 -7 216 -6 216 -2090 -6 c-1149 -3 -2089 0
-2089 7 0 26 61 27 2120 22 l2080 -5 -4 -225z m-3904 35 l2 -100 -8 97 -8 96
-119 -6 c-66 -4 -119 0 -119 9 0 9 56 13 125 10 l125 -6 2 -100z m348 -60 l0
-170 -160 0 c-88 0 -160 7 -160 15 0 8 67 12 150 8 l150 -6 0 151 0 152 -140
0 c-146 0 -163 -13 -124 -100 19 -40 206 -42 220 -2 7 22 -12 26 -94 18 -57
-6 -108 -3 -114 7 -6 9 44 17 111 17 120 0 121 0 121 -58 l0 -58 -140 0 -140
1 0 97 0 98 160 0 160 0 0 -170z m600 100 c59 -34 87 -38 70 -10 -19 31 47 48
80 20 22 -18 37 -19 56 -3 18 15 33 16 47 2 14 -14 450 -20 1282 -19 l1261 1
7 -100 7 -100 -1632 -1 c-1830 -1 -1757 -6 -1706 136 19 53 23 54 179 52 113
-1 164 6 175 25 21 35 111 33 174 -3z m-980 -25 c0 -8 -40 -15 -90 -15 -49 0
-90 7 -90 15 0 8 41 15 90 15 50 0 90 -7 90 -15z m0 -74 c0 -23 -22 -31 -90
-31 -61 0 -90 8 -90 26 0 17 31 28 90 31 70 4 90 -2 90 -26z m0 -76 c0 -8 -40
-15 -90 -15 -49 0 -90 7 -90 15 0 8 41 15 90 15 50 0 90 -7 90 -15z m40 -35
l0 -60 -130 0 c-71 0 -130 7 -130 15 0 8 54 12 120 8 118 -6 120 -5 120 45 0
29 5 52 10 52 6 0 10 -27 10 -60z m300 37 c0 -8 -63 -17 -140 -20 -85 -4 -140
1 -140 13 0 11 60 20 140 20 77 0 140 -6 140 -13z m3600 -294 c0 -37 -10 -56
-30 -56 -16 0 -30 12 -30 28 0 15 9 22 20 15 11 -7 20 2 20 19 0 29 -191 31
-1990 26 -1317 -3 -1990 2 -1990 15 0 13 677 18 2000 15 l2000 -5 0 -57z
m-3160 -37 c0 -34 -25 -36 -395 -29 -217 4 -420 6 -450 5 -34 -2 -55 8 -55 25
0 23 83 28 450 31 422 4 450 2 450 -32z m3020 -1286 l0 -1080 -1975 5 -1975 5
-5 1063 -5 1062 425 -9 c248 -6 458 -1 505 10 49 12 657 21 1555 22 l1475 2 0
-1080z"/>
<path d="M0 2975 c0 -73 8 -137 17 -143 19 -12 14 243 -5 262 -6 7 -12 -47
-12 -119z"/>
<path d="M5960 80 c0 -11 -20 -21 -45 -22 -34 -2 -36 -5 -10 -12 19 -5 35 -17
35 -27 0 -10 14 -13 30 -6 33 13 42 87 10 87 -11 0 -20 -9 -20 -20z"/>
</g>
</svg>
