<?xml version="1.0" standalone="no"?>
<!DOCTYPE svg PUBLIC "-//W3C//DTD SVG 20010904//EN"
 "http://www.w3.org/TR/2001/REC-SVG-20010904/DTD/svg10.dtd">
<svg version="1.0" xmlns="http://www.w3.org/2000/svg"
 width="200.000000pt" height="200.000000pt" viewBox="0 0 200.000000 200.000000"
 preserveAspectRatio="xMidYMid meet">
<metadata>
Created by potrace 1.10, written by Peter Selinger 2001-2011
</metadata>
<g transform="translate(0.000000,200.000000) scale(0.050000,-0.050000)"
fill="#660000" stroke="none">
<path d="M1869 3923 c-4 -5 -64 -15 -133 -23 -531 -64 -1078 -544 -1251 -1100
-85 -274 -91 -842 -9 -924 13 -13 24 -43 24 -67 0 -24 23 -85 50 -137 28 -52
50 -105 50 -118 0 -32 135 -230 209 -307 34 -34 100 -102 147 -152 l87 -89
-147 -4 c-283 -6 -416 -123 -416 -363 0 -75 -10 -181 -23 -237 -43 -183 127
-419 273 -382 15 4 542 16 890 21 17 0 63 -6 102 -12 49 -9 93 -2 137 20 59
31 71 31 164 0 76 -25 119 -29 183 -14 46 10 179 14 294 9 116 -5 239 -8 275
-7 36 0 99 0 140 0 387 -7 381 -8 439 34 345 251 112 924 -305 881 -166 -17
-165 -11 51 206 99 99 180 190 180 202 0 12 17 39 37 61 20 22 46 60 57 84 12
25 44 95 73 155 29 61 53 129 53 151 0 23 11 52 24 65 78 78 75 684 -5 904
-47 130 -178 394 -209 420 -16 14 -30 36 -30 49 0 122 -502 495 -820 610 -124
45 -562 92 -591 64z m75 -177 l56 -53 62 58 c59 55 64 57 85 22 65 -104 62
-103 137 -46 l70 53 36 -80 36 -80 70 41 c73 43 103 31 104 -41 1 -70 30 -85
105 -53 86 36 95 29 95 -72 0 -64 6 -76 35 -68 19 5 61 15 92 22 l57 13 -7
-93 -8 -92 86 7 86 6 -12 -83 -13 -83 82 -14 c94 -16 91 -10 53 -100 -32 -76
-30 -79 64 -99 71 -15 79 -40 34 -100 -45 -60 -35 -86 41 -111 84 -28 83 -25
19 -109 l-51 -67 73 -44 72 -45 -63 -65 -62 -64 63 -54 c35 -30 61 -56 57 -59
-5 -3 -37 -26 -73 -51 l-65 -45 52 -68 53 -69 -81 -36 -81 -36 40 -63 c48 -76
38 -99 -53 -116 l-69 -13 30 -71 c41 -99 38 -105 -53 -105 l-83 0 14 -90 13
-90 -86 0 -87 0 8 -83 8 -82 -93 14 -92 13 0 -83 c0 -77 -4 -83 -45 -71 -139
38 -131 41 -155 -47 l-22 -83 -66 41 c-87 53 -89 53 -123 -29 -35 -82 -41 -83
-118 -20 l-59 48 -36 -60 c-46 -76 -45 -98 4 -98 50 0 78 -66 76 -179 -1 -105
-41 -148 -121 -130 -41 9 -56 6 -47 -8 8 -12 4 -41 -8 -64 -17 -31 -17 -49 1
-70 36 -44 56 -36 103 43 29 50 52 68 78 62 30 -8 38 6 48 83 20 157 30 185
80 235 60 60 152 63 228 6 60 -44 91 -37 187 40 31 25 35 24 35 -5 0 -18 13
-33 29 -33 38 0 36 -139 -2 -154 -32 -12 -39 -286 -7 -286 35 0 21 -70 -21
-106 -95 -82 -201 49 -129 159 18 28 32 95 33 165 2 147 -18 188 -57 115 -35
-68 -119 -73 -145 -8 -14 34 -19 37 -20 10 -1 -44 -20 -45 -52 0 -49 67 -80
-52 -50 -190 46 -208 77 -230 142 -104 44 86 115 105 103 28 -3 -21 -8 -61
-10 -89 -3 -37 -22 -56 -74 -75 -108 -38 -156 -29 -279 51 -6 3 3 14 18 24 22
13 24 28 8 63 -20 44 -22 41 -36 -38 -14 -85 -37 -108 -59 -60 -6 14 -7 7 -2
-16 15 -59 -155 -67 -205 -9 -19 22 -50 40 -69 40 -20 0 -36 14 -36 32 0 21
11 28 32 20 25 -10 29 -4 18 23 -8 19 -19 91 -25 160 -13 158 -108 194 -132
50 -24 -142 -16 -265 17 -265 17 0 30 -9 30 -20 0 -11 -12 -20 -28 -20 -15 0
-32 -19 -38 -42 -8 -29 -24 -39 -58 -35 -46 7 -59 202 -25 377 8 37 5 43 -9
21 -24 -35 -43 -21 -47 35 -3 42 -42 39 -89 -7 -33 -33 -39 -259 -7 -298 31
-37 14 -91 -30 -91 -17 0 -26 -9 -19 -20 16 -26 -14 -25 -84 3 -31 13 -80 21
-110 18 -69 -5 -87 53 -69 221 8 72 5 118 -7 118 -29 0 -25 55 5 67 16 6 17
10 2 11 -72 6 -117 -315 -49 -356 15 -10 21 -28 13 -40 -7 -12 -22 -17 -32
-11 -11 6 -19 2 -19 -10 0 -25 -93 -28 -108 -4 -6 10 -2 92 8 184 22 192 26
179 -47 164 l-58 -11 9 -158 c10 -175 -11 -210 -113 -184 -44 10 -47 18 -28
53 27 52 49 375 25 374 -74 -2 -142 -319 -68 -319 35 0 21 -70 -21 -106 -50
-43 -139 -26 -139 27 0 19 -5 49 -11 65 -6 16 3 43 20 60 39 39 47 280 11 323
-28 35 -11 71 34 71 17 0 44 16 58 35 25 33 27 33 27 0 1 -19 16 -35 33 -35
24 0 30 -13 23 -52 -6 -28 -3 -44 6 -35 8 10 19 40 22 67 8 57 139 75 189 26
14 -14 34 -26 44 -26 11 0 25 -15 32 -33 12 -29 18 -28 59 10 114 107 204 38
184 -140 -10 -90 -7 -127 11 -138 20 -13 20 -22 0 -46 -18 -23 -19 -41 -4 -67
20 -35 21 -35 21 0 1 20 15 51 33 68 32 33 32 223 -1 321 -13 37 -8 45 25 45
22 0 45 14 51 30 15 38 53 39 53 1 0 -18 22 -28 65 -29 36 0 104 -6 152 -13
114 -18 135 13 77 113 l-43 76 -66 -50 c-64 -49 -105 -50 -105 -1 0 76 -49 98
-123 55 l-71 -42 -24 82 c-22 71 -31 80 -68 68 -104 -32 -124 -24 -130 56 l-7
76 -91 -14 -92 -13 11 82 11 83 -88 0 -87 0 12 90 12 90 -82 0 c-95 0 -93 -3
-53 93 17 40 30 75 30 79 0 3 -32 12 -70 19 -93 18 -101 37 -52 116 l42 67
-83 33 -83 32 54 70 53 69 -70 48 -70 47 60 57 59 58 -61 63 -62 64 71 44 c75
46 76 80 3 140 -46 39 -38 55 39 81 77 25 83 45 40 120 -40 70 -38 75 35 91
95 20 98 24 65 103 -17 39 -30 73 -30 77 0 3 37 12 82 19 l82 14 -13 83 -12
83 88 -7 89 -7 -11 94 c-10 86 -7 94 27 84 142 -39 148 -38 148 24 0 111 14
125 95 91 76 -31 104 -18 105 51 1 73 31 84 106 39 l73 -42 33 82 33 82 70
-53 70 -54 37 48 c20 26 37 55 38 63 0 28 27 15 84 -39z m1288 -2996 c126 -82
184 -304 107 -412 -23 -32 -32 -58 -20 -58 11 0 21 -13 21 -30 0 -16 -13 -30
-30 -30 -16 0 -30 10 -30 22 0 17 -8 17 -28 0 -179 -149 -389 47 -332 308 13
55 24 120 26 143 5 59 32 82 55 46 16 -25 18 -25 19 2 0 41 154 48 212 9z"/>
<path d="M1790 3627 c-722 -116 -1225 -820 -1097 -1537 251 -1408 2235 -1485
2598 -100 237 903 -574 1786 -1501 1637z m571 -146 c875 -272 1146 -1370 499
-2022 -786 -792 -2139 -191 -2074 921 47 793 822 1335 1575 1101z"/>
<path d="M1849 3479 c-608 -79 -1068 -642 -1020 -1247 80 -1009 1287 -1457
2001 -742 784 784 119 2133 -981 1989z m51 -187 c26 -19 26 -17 3 13 -76 97
452 24 627 -86 570 -360 678 -1115 230 -1606 -98 -107 -298 -247 -374 -262
-20 -4 -85 -31 -146 -59 -169 -79 -493 -46 -625 64 -15 12 -69 40 -121 62 -52
22 -94 50 -94 61 0 12 -12 21 -27 21 -28 0 -193 196 -278 330 -146 231 -161
642 -33 910 72 152 267 400 313 400 14 0 25 8 25 19 0 29 275 162 309 148 17
-6 31 -3 31 7 0 24 121 8 160 -22z"/>
<path d="M2364 3216 c-28 -28 -32 -76 -7 -76 9 0 27 23 39 50 24 53 8 66 -32
26z"/>
<path d="M1700 3060 c0 -9 23 -30 50 -48 47 -31 50 -31 50 5 0 25 -17 42 -50
48 -27 5 -50 3 -50 -5z"/>
<path d="M2233 3047 c-56 -57 0 -79 67 -27 l50 39 -52 1 c-28 0 -57 -6 -65
-13z"/>
<path d="M1405 2955 c-60 -28 -75 -97 -38 -169 29 -55 28 -62 -11 -95 -45 -39
-44 -251 3 -298 16 -16 19 -6 10 38 -6 32 -3 97 8 144 12 55 12 85 -1 85 -10
0 -6 13 10 28 24 25 42 22 131 -22 108 -53 203 -34 203 42 0 79 -181 198 -243
160 -17 -10 -20 -4 -10 22 11 28 8 31 -12 14 -52 -43 -39 -121 27 -155 59 -31
60 -31 38 10 -46 86 26 108 112 34 120 -103 -34 -160 -175 -64 -89 60 -108
120 -56 172 40 40 99 53 99 21 0 -10 18 -14 40 -8 23 6 40 1 40 -13 0 -13 9
-18 20 -11 11 7 20 3 20 -9 0 -11 14 -21 31 -21 17 0 26 -8 20 -18 -6 -10 12
-24 41 -31 39 -10 65 -43 110 -142 57 -125 82 -151 108 -108 20 32 -63 185
-145 269 -127 128 -274 176 -380 125z"/>
<path d="M2084 2932 c-12 -23 -28 -58 -35 -77 -20 -51 -35 -44 -78 35 -34 63
-85 89 -116 58 -16 -15 67 -109 86 -97 8 5 20 -5 27 -22 18 -47 117 -25 147
33 13 26 25 39 25 28 1 -21 39 30 40 53 1 36 -75 27 -96 -11z"/>
<path d="M2388 2942 c-45 -20 -113 -69 -151 -109 -54 -55 -76 -66 -94 -48 -17
17 -23 17 -23 -1 0 -13 8 -24 19 -24 10 0 1 -41 -21 -90 -38 -86 -37 -130 3
-130 10 0 45 58 77 129 45 99 71 132 110 142 29 7 47 21 41 31 -6 10 3 18 20
18 17 0 31 10 31 21 0 12 9 16 20 9 11 -7 20 -2 20 11 0 14 17 19 40 13 22 -6
40 -2 40 8 0 10 14 18 31 18 17 0 26 -9 19 -20 -7 -11 1 -15 17 -8 97 37 69
-127 -33 -189 -142 -88 -281 -29 -166 70 88 76 157 52 110 -38 -23 -42 -22
-43 11 -15 20 16 51 30 69 30 17 0 31 11 30 25 -6 78 -9 81 -85 77 -174 -9
-303 -201 -160 -239 94 -24 317 129 317 219 0 107 -151 154 -292 90z"/>
<path d="M1540 2784 c0 -31 96 -86 110 -64 7 11 -2 20 -19 20 -17 0 -29 11
-26 24 3 13 -11 27 -30 31 -19 4 -35 -1 -35 -11z"/>
<path d="M2418 2785 c-2 -8 -2 -22 0 -30 1 -8 -8 -15 -21 -15 -13 0 -18 -5
-12 -12 16 -15 95 28 95 53 0 22 -59 26 -62 4z"/>
<path d="M1760 2684 c0 -23 -14 -50 -31 -59 -24 -14 -16 -22 38 -39 l69 -21
-30 73 c-38 91 -46 99 -46 46z"/>
<path d="M2234 2677 c-8 -29 -19 -67 -26 -85 -10 -27 -3 -28 51 -9 52 18 58
25 33 44 -16 13 -32 41 -36 63 -7 34 -10 32 -22 -13z"/>
<path d="M2669 2673 c-12 -13 -15 -45 -7 -73 8 -27 16 -86 17 -130 5 -117 38
-31 40 104 1 108 -14 138 -50 99z"/>
<path d="M2580 2573 c0 -14 7 -33 15 -41 8 -8 26 -43 38 -78 20 -55 24 -57 25
-18 2 44 -49 164 -69 164 -5 0 -9 -12 -9 -27z"/>
<path d="M1401 2541 c-59 -110 -12 -159 66 -68 31 37 48 67 36 67 -11 0 -39
-24 -62 -53 -48 -62 -56 -28 -9 44 19 28 24 49 11 49 -12 0 -31 -17 -42 -39z"/>
<path d="M1960 2559 c0 -9 -5 -30 -12 -47 -8 -21 -1 -32 18 -32 17 0 34 -8 37
-19 14 -37 75 32 64 73 -10 40 -107 62 -107 25z"/>
<path d="M1567 2461 c-212 -89 -174 -381 50 -381 55 0 104 -9 110 -20 5 -12 8
-10 5 5 -3 14 18 40 48 58 68 41 127 164 111 230 -19 77 -230 147 -324 108z"/>
<path d="M2288 2453 c-124 -34 -154 -67 -139 -152 6 -39 14 -86 16 -105 2 -19
7 -31 11 -27 4 4 39 -14 78 -41 218 -148 446 31 307 241 -70 105 -130 124
-273 84z"/>
<path d="M1954 2204 c-67 -137 -71 -204 -14 -204 54 0 52 -63 -3 -112 -24 -21
-38 -27 -30 -14 7 13 4 29 -7 36 -11 7 -15 23 -7 36 7 13 7 18 -2 10 -8 -7
-27 -3 -40 10 -21 19 -20 28 5 46 24 18 25 25 4 38 -18 11 -21 8 -11 -9 12
-19 4 -22 -31 -12 -37 11 -41 9 -18 -7 29 -20 -35 -32 -139 -27 -16 1 -53 -11
-82 -26 -30 -15 -60 -22 -66 -15 -7 7 -13 1 -13 -13 0 -14 13 -20 30 -14 17 7
30 3 30 -8 0 -35 35 -19 46 21 6 22 20 40 33 40 16 0 17 -11 1 -40 -29 -54 6
-116 71 -130 27 -5 74 -16 104 -24 68 -17 165 -21 165 -7 0 6 -9 24 -19 39
-12 19 -6 44 16 74 l33 45 44 -41 c24 -22 39 -51 34 -65 -16 -42 44 -77 89
-52 51 27 89 27 73 1 -7 -11 3 -20 22 -20 19 0 29 6 21 14 -8 7 14 25 49 40
56 23 62 33 54 99 l-9 72 40 -47 c26 -32 42 -40 48 -23 4 14 17 20 27 14 10
-6 18 -3 18 8 0 29 -91 52 -240 61 -63 4 -66 6 -25 23 25 10 45 23 45 28 0 38
-127 -47 -134 -90 -4 -27 -16 -52 -27 -56 -10 -3 -14 -17 -8 -30 7 -13 -11 4
-40 37 -96 110 -95 108 -25 97 64 -11 138 36 107 67 -7 7 -13 0 -14 -16 0 -15
-31 37 -68 117 -81 172 -68 170 -137 29z m109 -53 c28 -61 12 -105 -36 -102
-83 6 -98 53 -41 126 29 38 52 30 77 -24z m-227 -216 c5 -26 -6 -35 -44 -35
-37 0 -48 8 -39 30 13 34 -24 41 -44 9 -37 -60 84 -103 138 -49 32 32 60 14
37 -23 -22 -34 -144 -55 -144 -25 0 13 -6 19 -12 12 -14 -14 -68 34 -68 61 0
68 164 87 176 20z m515 16 c39 -29 21 -106 -23 -98 -10 2 -28 -5 -41 -16 -33
-27 -127 1 -127 39 0 25 5 27 24 8 32 -32 106 -30 134 3 25 30 -26 92 -53 65
-8 -8 -1 -23 16 -33 22 -14 16 -18 -26 -19 -52 0 -74 35 -42 67 23 23 98 14
138 -16z"/>
<path d="M1989 1857 c-10 -31 -3 -52 21 -70 52 -37 71 -15 47 53 -25 71 -49
77 -68 17z"/>
<path d="M2340 1550 c-14 -16 -44 -31 -67 -32 -31 -2 -26 -7 17 -17 67 -15
110 -6 110 22 0 11 -11 13 -25 4 -17 -10 -16 -4 2 19 16 19 19 34 8 34 -11 0
-31 -13 -45 -30z"/>
<path d="M1962 1425 c26 -30 49 -57 49 -60 1 -2 23 25 49 60 26 36 34 54 17
40 -23 -18 -35 -19 -53 -1 -19 19 -24 17 -24 -4 0 -22 -5 -23 -24 -4 -49 49
-61 22 -14 -31z"/>
<path d="M1901 1375 c-1 -19 -11 -35 -22 -35 -40 0 0 -35 51 -45 60 -11 63 5
11 68 -33 39 -40 41 -40 12z"/>
<path d="M2075 1341 c-14 -51 2 -64 48 -39 33 17 34 24 9 49 -38 38 -45 37
-57 -10z"/>
<path d="M1949 879 c-53 -56 -54 -60 -21 -97 36 -40 42 -39 169 32 5 2 -15 31
-42 64 l-50 59 -56 -58z"/>
<path d="M2087 718 c-73 -91 -48 -180 41 -146 34 13 45 108 13 108 -10 0 -21
15 -25 33 -5 28 -10 29 -29 5z"/>
<path d="M3054 628 c-74 -73 -54 -328 25 -328 73 0 114 39 106 98 -11 70 7 79
49 27 42 -51 15 104 -32 185 -45 79 -83 83 -148 18z"/>
</g>
</svg>
